<mxfile host="65bd71144e">
    <diagram id="TqxjZQB3duoyXDi04orf" name="Page-1">
        <mxGraphModel dx="911" dy="820" grid="1" gridSize="10" guides="1" tooltips="1" connect="1" arrows="1" fold="1" page="1" pageScale="1" pageWidth="827" pageHeight="1169" math="0" shadow="0">
            <root>
                <mxCell id="0"/>
                <mxCell id="1" parent="0"/>
                <mxCell id="2" value="LLM based Documment Summary" style="text;html=1;strokeColor=none;fillColor=none;align=center;verticalAlign=middle;whiteSpace=wrap;rounded=0;fontColor=#330000;labelBackgroundColor=none;sketch=1;curveFitting=1;jiggle=2;sketchStyle=comic;fontSize=15;" parent="1" vertex="1">
                    <mxGeometry x="150" y="20" width="370" height="70" as="geometry"/>
                </mxCell>
                <mxCell id="3" value="PDF to Text" style="rounded=1;whiteSpace=wrap;html=1;labelBackgroundColor=none;sketch=1;sketchStyle=comic;fontSize=15;fontColor=default;" parent="1" vertex="1">
                    <mxGeometry x="200" y="160" width="120" height="70" as="geometry"/>
                </mxCell>
                <mxCell id="4" value="PDF" style="html=1;strokeColor=none;fillColor=#0079D6;labelPosition=center;verticalLabelPosition=middle;verticalAlign=top;align=center;fontSize=12;outlineConnect=0;spacingTop=-6;fontColor=#FFFFFF;sketch=0;shape=mxgraph.sitemap.document;labelBackgroundColor=none;sketchStyle=comic;" parent="1" vertex="1">
                    <mxGeometry x="50" y="170" width="80" height="60" as="geometry"/>
                </mxCell>
                <mxCell id="5" value="Web Doc&amp;nbsp;(URL)" style="html=1;strokeColor=none;fillColor=#0079D6;labelPosition=center;verticalLabelPosition=middle;verticalAlign=top;align=center;fontSize=12;outlineConnect=0;spacingTop=-6;fontColor=#FFFFFF;sketch=0;shape=mxgraph.sitemap.document;labelBackgroundColor=none;sketchStyle=comic;" parent="1" vertex="1">
                    <mxGeometry x="50" y="250" width="80" height="60" as="geometry"/>
                </mxCell>
                <mxCell id="6" value="Web doc to Text" style="rounded=1;whiteSpace=wrap;html=1;labelBackgroundColor=none;sketch=1;sketchStyle=comic;fontSize=15;fontColor=default;" parent="1" vertex="1">
                    <mxGeometry x="200" y="250" width="120" height="70" as="geometry"/>
                </mxCell>
                <mxCell id="30" value="" style="edgeStyle=none;html=1;fontSize=15;fontColor=#f2e8e8;" parent="1" source="7" edge="1">
                    <mxGeometry relative="1" as="geometry">
                        <mxPoint x="580" y="443" as="targetPoint"/>
                    </mxGeometry>
                </mxCell>
                <mxCell id="7" value="LLM Engine&amp;nbsp;" style="rounded=1;whiteSpace=wrap;html=1;labelBackgroundColor=none;sketch=1;sketchStyle=comic;fontSize=15;fontColor=default;" parent="1" vertex="1">
                    <mxGeometry x="395" y="412.5" width="120" height="60" as="geometry"/>
                </mxCell>
                <mxCell id="8" value="Document chunk" style="shape=cylinder3;whiteSpace=wrap;html=1;boundedLbl=1;backgroundOutline=1;size=15;labelBackgroundColor=none;sketch=1;sketchStyle=comic;fontSize=15;fontColor=default;" parent="1" vertex="1">
                    <mxGeometry x="400" y="160" width="110" height="160" as="geometry"/>
                </mxCell>
                <mxCell id="17" value="" style="endArrow=classic;html=1;fontSize=15;fontColor=#151414;exitX=1;exitY=0.5;exitDx=0;exitDy=0;exitPerimeter=0;" parent="1" source="4" edge="1">
                    <mxGeometry width="50" height="50" relative="1" as="geometry">
                        <mxPoint x="130" y="210" as="sourcePoint"/>
                        <mxPoint x="200" y="200" as="targetPoint"/>
                    </mxGeometry>
                </mxCell>
                <mxCell id="18" value="" style="endArrow=classic;html=1;fontSize=15;fontColor=#151414;exitX=1;exitY=0.5;exitDx=0;exitDy=0;exitPerimeter=0;" parent="1" edge="1">
                    <mxGeometry width="50" height="50" relative="1" as="geometry">
                        <mxPoint x="130" y="279.5" as="sourcePoint"/>
                        <mxPoint x="200" y="279.5" as="targetPoint"/>
                    </mxGeometry>
                </mxCell>
                <mxCell id="19" value="" style="endArrow=classic;html=1;fontSize=15;fontColor=#151414;exitX=1;exitY=0.5;exitDx=0;exitDy=0;exitPerimeter=0;entryX=0;entryY=0.231;entryDx=0;entryDy=0;entryPerimeter=0;" parent="1" target="8" edge="1">
                    <mxGeometry width="50" height="50" relative="1" as="geometry">
                        <mxPoint x="320" y="200" as="sourcePoint"/>
                        <mxPoint x="390" y="200" as="targetPoint"/>
                    </mxGeometry>
                </mxCell>
                <mxCell id="20" value="" style="endArrow=classic;html=1;fontSize=15;fontColor=#151414;exitX=1;exitY=0.5;exitDx=0;exitDy=0;exitPerimeter=0;entryX=0;entryY=0.231;entryDx=0;entryDy=0;entryPerimeter=0;" parent="1" edge="1">
                    <mxGeometry width="50" height="50" relative="1" as="geometry">
                        <mxPoint x="320" y="279.5" as="sourcePoint"/>
                        <mxPoint x="400" y="279.53" as="targetPoint"/>
                    </mxGeometry>
                </mxCell>
                <mxCell id="21" value="" style="endArrow=classic;html=1;fontSize=15;fontColor=#151414;entryX=0.5;entryY=0;entryDx=0;entryDy=0;" parent="1" source="8" edge="1">
                    <mxGeometry width="50" height="50" relative="1" as="geometry">
                        <mxPoint x="420" y="410" as="sourcePoint"/>
                        <mxPoint x="455" y="405" as="targetPoint"/>
                    </mxGeometry>
                </mxCell>
                <mxCell id="23" value="" style="endArrow=classic;html=1;fontSize=15;fontColor=#151414;exitX=1;exitY=0.5;exitDx=0;exitDy=0;" parent="1" edge="1">
                    <mxGeometry width="50" height="50" relative="1" as="geometry">
                        <mxPoint x="170" y="442.5" as="sourcePoint"/>
                        <mxPoint x="390" y="440" as="targetPoint"/>
                    </mxGeometry>
                </mxCell>
                <mxCell id="31" value="" style="rounded=0;whiteSpace=wrap;html=1;labelBackgroundColor=none;sketch=1;sketchStyle=comic;fontSize=15;fontColor=#f2e8e8;fillColor=none;strokeColor=#66B2FF;strokeWidth=3;" parent="1" vertex="1">
                    <mxGeometry x="20" y="100" width="660" height="250" as="geometry"/>
                </mxCell>
                <mxCell id="29" value="LLM Output" style="rounded=1;whiteSpace=wrap;html=1;labelBackgroundColor=none;sketch=1;sketchStyle=comic;fontSize=15;fontColor=default;strokeColor=none;" parent="1" vertex="1">
                    <mxGeometry x="580" y="410" width="110" height="62.5" as="geometry"/>
                </mxCell>
                <mxCell id="33" value="" style="rounded=0;whiteSpace=wrap;html=1;labelBackgroundColor=none;sketch=1;sketchStyle=comic;fontSize=15;fontColor=#FF9999;fillColor=none;strokeColor=#FF9999;strokeWidth=3;" parent="1" vertex="1">
                    <mxGeometry x="20" y="380" width="660" height="170" as="geometry"/>
                </mxCell>
                <mxCell id="34" value="Chat response generation" style="text;html=1;strokeColor=none;fillColor=none;align=center;verticalAlign=middle;whiteSpace=wrap;rounded=0;labelBackgroundColor=none;sketch=1;sketchStyle=comic;fontSize=15;fontColor=#330000;" parent="1" vertex="1">
                    <mxGeometry x="220" y="490" width="290" height="40" as="geometry"/>
                </mxCell>
                <mxCell id="35" value="Prompt&amp;nbsp; for summary task" style="text;html=1;strokeColor=none;fillColor=none;align=center;verticalAlign=middle;whiteSpace=wrap;rounded=0;fontSize=15;" parent="1" vertex="1">
                    <mxGeometry x="70" y="412.5" width="100" height="60" as="geometry"/>
                </mxCell>
                <mxCell id="36" value="Document processing" style="text;html=1;strokeColor=none;fillColor=none;align=center;verticalAlign=middle;whiteSpace=wrap;rounded=0;labelBackgroundColor=none;fontColor=#330000;fontSize=15;" vertex="1" parent="1">
                    <mxGeometry x="260" y="100" width="180" height="30" as="geometry"/>
                </mxCell>
            </root>
        </mxGraphModel>
    </diagram>
</mxfile>